<svg width="94" height="14" viewBox="0 0 94 14" fill="none" xmlns="http://www.w3.org/2000/svg">
<g clip-path="url(#clip0_1_1355)">
<path d="M7.00033 9.68827L4.47666 11.0833L4.95866 8.12857L2.91699 6.03604L5.73871 5.60494L7.00033 2.91663L8.26194 5.60494L11.0837 6.03604L9.04199 8.12857L9.52399 11.0833L7.00033 9.68827Z" fill="#FFDD45" stroke="#FFDD45" stroke-width="3" stroke-linecap="square"/>
</g>
<g clip-path="url(#clip1_1_1355)">
<path d="M27.0003 9.68827L24.4767 11.0833L24.9587 8.12857L22.917 6.03604L25.7387 5.60494L27.0003 2.91663L28.2619 5.60494L31.0837 6.03604L29.042 8.12857L29.524 11.0833L27.0003 9.68827Z" fill="#FFDD45" stroke="#FFDD45" stroke-width="3" stroke-linecap="square"/>
</g>
<g clip-path="url(#clip2_1_1355)">
<path d="M47.0003 9.68827L44.4767 11.0833L44.9587 8.12857L42.917 6.03604L45.7387 5.60494L47.0003 2.91663L48.2619 5.60494L51.0837 6.03604L49.042 8.12857L49.524 11.0833L47.0003 9.68827Z" fill="#FFDD45" stroke="#FFDD45" stroke-width="3" stroke-linecap="square"/>
</g>
<g clip-path="url(#clip3_1_1355)">
<path d="M67.0003 9.68827L64.4767 11.0833L64.9587 8.12857L62.917 6.03604L65.7387 5.60494L67.0003 2.91663L68.2619 5.60494L71.0837 6.03604L69.042 8.12857L69.524 11.0833L67.0003 9.68827Z" fill="#FFDD45" stroke="#FFDD45" stroke-width="3" stroke-linecap="square"/>
</g>
<g clip-path="url(#clip4_1_1355)">
<path d="M87.0003 9.68827L84.4767 11.0833L84.9587 8.12857L82.917 6.03604L85.7387 5.60494L87.0003 2.91663L88.2619 5.60494L91.0837 6.03604L89.042 8.12857L89.524 11.0833L87.0003 9.68827Z" fill="#FFDD45" stroke="#FFDD45" stroke-width="3" stroke-linecap="square"/>
</g>
<defs>
<clipPath id="clip0_1_1355">
<rect width="14" height="14" fill="white"/>
</clipPath>
<clipPath id="clip1_1_1355">
<rect width="14" height="14" fill="white" transform="translate(20)"/>
</clipPath>
<clipPath id="clip2_1_1355">
<rect width="14" height="14" fill="white" transform="translate(40)"/>
</clipPath>
<clipPath id="clip3_1_1355">
<rect width="14" height="14" fill="white" transform="translate(60)"/>
</clipPath>
<clipPath id="clip4_1_1355">
<rect width="14" height="14" fill="white" transform="translate(80)"/>
</clipPath>
</defs>
</svg>
